<svg xmlns="http://www.w3.org/2000/svg" width="174" height="138" fill="none"><path stroke="#44FFA1" d="M69.16 69.016c0 18.855-3.85 35.9-10.052 48.212-6.216 12.342-14.711 19.788-23.949 19.788-9.237 0-17.732-7.446-23.948-19.788C5.009 104.916 1.159 87.871 1.159 69.016c0-18.854 3.85-35.899 10.052-48.211C17.427 8.463 25.92 1.016 35.159 1.016s17.733 7.447 23.949 19.789c6.201 12.312 10.051 29.357 10.051 48.211Z"/><path stroke="#44FFA1" d="M95.16 69.016c0 18.855-3.85 35.9-10.052 48.212-6.216 12.342-14.711 19.788-23.949 19.788-9.237 0-17.733-7.446-23.948-19.788-6.202-12.312-10.052-29.357-10.052-48.212 0-18.854 3.85-35.899 10.052-48.211C43.426 8.463 51.92 1.016 61.159 1.016s17.733 7.447 23.949 19.789c6.201 12.312 10.051 29.357 10.051 48.211Z"/><path stroke="#44FFA1" d="M120.159 69.016c0 18.856-3.794 35.902-9.906 48.215-6.127 12.344-14.498 19.785-23.594 19.785-9.095 0-17.466-7.441-23.594-19.785-6.111-12.313-9.906-29.36-9.906-48.215 0-18.855 3.795-35.9 9.907-48.214C69.192 8.458 77.564 1.016 86.659 1.016c9.096 0 17.467 7.442 23.594 19.786 6.112 12.313 9.906 29.359 9.906 48.214Z" opacity=".75"/><path stroke="#44FFA1" d="M147.159 69.016c0 18.855-3.85 35.9-10.051 48.212-6.216 12.342-14.711 19.788-23.949 19.788-9.237 0-17.733-7.446-23.948-19.788-6.202-12.312-10.052-29.357-10.052-48.212 0-18.854 3.85-35.899 10.052-48.211 6.216-12.342 14.711-19.789 23.948-19.789 9.238 0 17.733 7.447 23.949 19.789 6.201 12.312 10.051 29.357 10.051 48.211Z" opacity=".5"/><path stroke="#44FFA1" d="M173.159 69.016c0 18.856-3.794 35.902-9.906 48.215-6.127 12.344-14.498 19.785-23.594 19.785-9.095 0-17.466-7.441-23.593-19.785-6.112-12.313-9.907-29.36-9.907-48.215 0-18.855 3.795-35.9 9.907-48.214 6.127-12.344 14.498-19.786 23.593-19.786 9.096 0 17.467 7.442 23.594 19.786 6.112 12.313 9.906 29.359 9.906 48.214Z" opacity=".25"/></svg>